<svg width="19" height="19" viewBox="0 0 19 19" fill="none" xmlns="http://www.w3.org/2000/svg">
<path d="M8.14624 3.05587L1.44082 14.25C1.30257 14.4895 1.22942 14.7609 1.22864 15.0374C1.22787 15.3138 1.2995 15.5857 1.43641 15.8259C1.57331 16.0661 1.77073 16.2662 2.009 16.4064C2.24728 16.5466 2.51812 16.622 2.79457 16.625H16.2054C16.4819 16.622 16.7527 16.5466 16.991 16.4064C17.2292 16.2662 17.4267 16.0661 17.5636 15.8259C17.7005 15.5857 17.7721 15.3138 17.7713 15.0374C17.7706 14.7609 17.6974 14.4895 17.5592 14.25L10.8537 3.05587C10.7126 2.82321 10.5139 2.63084 10.2768 2.49734C10.0396 2.36384 9.77211 2.2937 9.49999 2.2937C9.22786 2.2937 8.96033 2.36384 8.72321 2.49734C8.48608 2.63084 8.28737 2.82321 8.14624 3.05587V3.05587Z" stroke="#EA8E5B" stroke-width="2" stroke-linecap="round" stroke-linejoin="round"/>
<path d="M9.5 7.125V10.2917" stroke="#EA8E5B" stroke-width="2" stroke-linecap="round" stroke-linejoin="round"/>
<path d="M9.5 13.4583H9.50875" stroke="#EA8E5B" stroke-width="2" stroke-linecap="round" stroke-linejoin="round"/>
</svg>
